<?xml version="1.0" encoding="UTF-8"?>
<svg id="_圖層_1" data-name="圖層 1" xmlns="http://www.w3.org/2000/svg" viewBox="0 0 126 65">
  <defs>
    <style>
      .cls-1 {
        fill: #000;
      }

      .cls-1, .cls-2, .cls-3, .cls-4 {
        stroke-width: 0px;
      }

      .cls-2 {
        fill: #e8c236;
      }

      .cls-3 {
        fill: none;
      }

      .cls-4 {
        fill: #fff;
      }
    </style>
  </defs>
  <rect class="cls-3" x="-.2" y=".31" width="126.63" height="64.79"/>
  <g>
    <g>
      <path class="cls-2" d="M53.63,39.17h2.44l7.5,3.93v-3.93h2.44v12.03h-2.44v-5.52l-7.5-3.9v9.42h-2.44v-12.03Z"/>
      <path class="cls-2" d="M69.11,39.17h2.46v12.03h-2.46v-12.03Z"/>
      <path class="cls-2" d="M74.68,39.17h2.44l4.37,4.39,4.37-4.39h2.44v12.03h-2.44v-8.65l-4.37,4.21-4.37-4.21v8.65h-2.44v-12.03Z"/>
      <path class="cls-4" d="M91.73,39.17h6.43c.79,0,1.47.08,2.05.25.58.17,1.07.4,1.45.69s.67.64.86,1.04c.19.4.28.84.28,1.31,0,.76-.24,1.43-.72,2.01.55.33.97.75,1.24,1.28.27.52.41,1.12.41,1.79,0,.56-.09,1.07-.28,1.52-.19.45-.47.84-.85,1.16-.38.32-.86.57-1.45.74-.58.17-1.27.26-2.06.26h-7.35v-12.03ZM99.1,43.79c.21,0,.42,0,.62.02.34-.33.52-.7.52-1.12s-.17-.77-.51-1.01c-.34-.24-.84-.36-1.5-.36h-4.05v2.47h4.93ZM99.15,49.08c.66,0,1.16-.14,1.5-.42.34-.28.51-.68.51-1.19s-.17-.91-.51-1.2c-.34-.29-.84-.43-1.5-.43h-4.97v3.25h4.97Z"/>
      <path class="cls-4" d="M106.2,39.17h2.44v9.89h7v2.14h-9.44v-12.03Z"/>
    </g>
    <g>
      <path class="cls-1" d="M57.39,24l-11.18-1.51s-1.55-2.51-3.01-3.31c-4.87-2.68-10.23-4.15-15.97-3.89-.44.02-5.52.42-5.52.34,0-2.28-4.7-4.44-7.37-3.95-1.56.29-2.82,1.41-3.14,2.8-.56,2.37,1.46,4.46,4.03,4.46v32.91c0,.64.35,1.66,1.48,1.82,1.14.16,7.07.1,7.94.1h3.07c3.2-8.27,18.01-17.2,19.75-17.51,5.46-.98,6.52-3.65,6.52-3.65,0,0,1.27-.02,1.54-.26.27-.25,2.04-6.15,2.4-7.06.34-.84-.55-1.28-.55-1.28"/>
      <path class="cls-2" d="M57.62,23.55l-11.11-1.53c-.42-.64-1.75-2.56-3.06-3.28-5.23-2.87-10.7-4.19-16.24-3.95-.12,0-.6.04-1.24.09-1.03.07-2.97.21-3.81.25-.16-.68-.62-1.35-1.37-1.97-1.75-1.46-4.62-2.33-6.54-1.97-1.75.32-3.18,1.6-3.55,3.18-.28,1.19,0,2.37.76,3.33.77.97,1.96,1.59,3.26,1.73v32.43c0,.99.6,2.14,1.92,2.33.64.09,2.6.11,4.75.11.85,0,1.74,0,2.58,0h3.94s12,0,12,0c.98,0,1.88-.48,2.35-1.24.4-.66.43-1.42.08-2.11-1.08-2.09-2.5-5.32-3.29-8.98,4.04-3.01,7.77-5.08,8.51-5.21,4.63-.83,6.27-2.87,6.74-3.66.61-.03,1.28-.12,1.57-.38.22-.19.41-.68,1.67-4.64.37-1.17.73-2.27.86-2.6.41-1.01-.34-1.7-.79-1.93ZM57.47,25.1c-.15.36-.49,1.44-.88,2.68-.47,1.49-1.18,3.69-1.41,4.19-.2.06-.72.12-1.18.13h-.34s-.13.32-.13.32c0,.02-1.08,2.44-6.14,3.34-1.63.29-10.57,5.62-16.18,11.85-.03.03-.06.06-.09.1-.16.18-.32.36-.47.54-.09.1-.18.21-.27.31-.09.1-.17.21-.25.31-.67.83-1.28,1.69-1.8,2.55-.07.11-.14.23-.2.34-.07.13-.14.26-.21.39-.08.15-.16.3-.23.45-.06.11-.11.23-.16.34-.05.11-.1.21-.15.32h-3.42c-1.71.01-6.25.04-7.18-.09-1.03-.14-1.04-1.27-1.04-1.32V18.43h-.51c-1.19,0-2.3-.51-2.97-1.36-.57-.72-.77-1.59-.56-2.47.28-1.19,1.38-2.16,2.74-2.41.22-.04.47-.06.73-.06,1.58,0,3.69.74,4.98,1.81.68.57,1.06,1.17,1.06,1.69v.22s.16.15.16.15q.22.2,4.68-.12c.62-.04,1.09-.08,1.21-.08,5.35-.24,10.64,1.05,15.7,3.83,1.32.72,2.8,3.1,2.82,3.13l.13.2,11.32,1.53c.12.08.37.29.24.6Z"/>
    </g>
  </g>
</svg>